<svg width="200" height="200" xmlns="http://www.w3.org/2000/svg">
    <defs>
        <linearGradient id="ranger-bg" x1="0%" y1="0%" x2="0%" y2="100%">
            <stop offset="0%" style="stop-color:#1b5e20;stop-opacity:1"/>
            <stop offset="100%" style="stop-color:#0a2e0a;stop-opacity:1"/>
        </linearGradient>
    </defs>
    <rect width="200" height="200" fill="url(#ranger-bg)"/>
    <circle cx="100" cy="75" r="25" fill="#d4a574"/>
    <rect x="75" y="100" width="50" height="50" rx="5" fill="#2e7d32"/>
    <rect x="55" y="105" width="20" height="10" rx="3" fill="#2e7d32"/>
    <rect x="125" y="105" width="20" height="10" rx="3" fill="#2e7d32"/>
    <path d="M80 50 Q100 40 120 50" fill="#4a2800"/>
    <rect x="135" y="70" width="4" height="60" fill="#8B4513"/>
    <line x1="125" y1="80" x2="145" y2="80" stroke="#c0c0c0" stroke-width="1.5"/>
    <path d="M125 80 L120 77 L120 83 Z" fill="#c0c0c0"/>
    <ellipse cx="70" cy="140" rx="8" ry="12" fill="#8B4513" opacity="0.8"/>
    <circle cx="92" cy="70" r="3" fill="#1a1a1a"/>
    <circle cx="108" cy="70" r="3" fill="#1a1a1a"/>
    <path d="M93 82 Q100 86 107 82" stroke="#1a1a1a" stroke-width="1.5" fill="none"/>
</svg>
